
<svg viewBox="0 0 1024 1536" xmlns="http://www.w3.org/2000/svg">
  <path d="M 504,35 L 503,36 L 495,36 L 494,37 L 490,37 L 489,38 L 486,38 L 485,39 L 483,39 L 482,40 L 480,40 L 479,41 L 478,41 L 477,42 L 476,42 L 475,43 L 474,43 L 473,44 L 472,44 L 471,45 L 470,45 L 469,46 L 468,46 L 466,48 L 465,48 L 462,51 L 461,51 L 453,59 L 453,60 L 450,63 L 450,64 L 448,66 L 448,67 L 447,68 L 447,69 L 446,70 L 446,71 L 445,72 L 445,73 L 444,74 L 444,76 L 443,77 L 443,79 L 442,80 L 442,83 L 441,84 L 441,87 L 440,88 L 440,94 L 439,95 L 439,120 L 438,121 L 433,121 L 432,122 L 431,122 L 430,123 L 429,123 L 427,125 L 427,126 L 426,127 L 426,128 L 425,129 L 425,131 L 424,132 L 424,146 L 425,147 L 425,152 L 426,153 L 426,155 L 427,156 L 427,158 L 428,159 L 428,161 L 429,162 L 429,163 L 430,164 L 430,165 L 431,166 L 431,167 L 434,170 L 434,171 L 436,173 L 437,173 L 439,175 L 440,175 L 441,176 L 442,176 L 443,177 L 445,177 L 446,178 L 446,182 L 447,183 L 447,187 L 448,188 L 448,191 L 449,192 L 449,194 L 450,195 L 450,197 L 451,198 L 451,199 L 452,200 L 452,201 L 454,203 L 454,204 L 455,205 L 455,206 L 456,207 L 456,209 L 457,210 L 457,247 L 456,248 L 456,251 L 455,252 L 455,253 L 454,254 L 454,255 L 453,256 L 452,256 L 451,257 L 450,257 L 449,258 L 448,258 L 447,259 L 446,259 L 445,260 L 444,260 L 443,261 L 442,261 L 441,262 L 440,262 L 439,263 L 438,263 L 437,264 L 436,264 L 435,265 L 433,265 L 432,266 L 431,266 L 430,267 L 429,267 L 428,268 L 426,268 L 425,269 L 424,269 L 423,270 L 422,270 L 421,271 L 420,271 L 419,272 L 417,272 L 416,273 L 415,273 L 414,274 L 413,274 L 412,275 L 411,275 L 410,276 L 409,276 L 408,277 L 406,277 L 405,278 L 404,278 L 403,279 L 402,279 L 401,280 L 400,280 L 399,281 L 398,281 L 397,282 L 395,282 L 394,283 L 393,283 L 392,284 L 391,284 L 390,285 L 387,285 L 386,286 L 381,286 L 380,287 L 375,287 L 374,288 L 370,288 L 369,289 L 365,289 L 364,290 L 361,290 L 360,291 L 357,291 L 356,292 L 355,292 L 354,293 L 352,293 L 351,294 L 350,294 L 349,295 L 348,295 L 347,296 L 345,296 L 343,298 L 342,298 L 341,299 L 340,299 L 338,301 L 337,301 L 335,303 L 334,303 L 321,316 L 321,317 L 319,319 L 319,320 L 317,322 L 317,323 L 316,324 L 316,325 L 314,327 L 314,328 L 313,329 L 313,330 L 312,331 L 312,332 L 311,333 L 311,335 L 310,336 L 310,337 L 309,338 L 309,340 L 308,341 L 308,343 L 307,344 L 307,347 L 306,348 L 306,351 L 305,352 L 305,356 L 304,357 L 304,363 L 303,364 L 303,409 L 302,410 L 302,415 L 301,416 L 301,421 L 300,422 L 300,427 L 299,428 L 299,434 L 298,435 L 298,440 L 297,441 L 297,447 L 296,448 L 296,454 L 295,455 L 295,460 L 294,461 L 294,468 L 293,469 L 293,475 L 292,476 L 292,481 L 291,482 L 291,488 L 290,489 L 290,495 L 289,496 L 289,503 L 288,504 L 288,510 L 287,511 L 287,516 L 286,517 L 286,521 L 285,522 L 285,524 L 284,525 L 284,526 L 283,527 L 283,528 L 282,529 L 282,530 L 281,531 L 281,533 L 280,534 L 280,535 L 279,536 L 279,537 L 278,538 L 278,540 L 277,541 L 277,542 L 276,543 L 276,544 L 275,545 L 275,547 L 274,548 L 274,550 L 273,551 L 273,552 L 272,553 L 272,555 L 271,556 L 271,558 L 270,559 L 270,561 L 269,562 L 269,564 L 268,565 L 268,567 L 267,568 L 267,571 L 266,572 L 266,576 L 265,577 L 265,581 L 264,582 L 264,587 L 263,588 L 263,595 L 262,596 L 262,604 L 261,605 L 261,611 L 260,612 L 260,619 L 259,620 L 259,627 L 258,628 L 258,636 L 257,637 L 257,643 L 256,644 L 256,650 L 255,651 L 255,656 L 254,657 L 254,662 L 253,663 L 253,668 L 252,669 L 252,674 L 251,675 L 251,680 L 250,681 L 250,685 L 249,686 L 249,691 L 248,692 L 248,697 L 247,698 L 247,703 L 246,704 L 246,708 L 245,709 L 245,714 L 244,715 L 244,719 L 243,720 L 243,724 L 242,725 L 242,727 L 241,728 L 241,731 L 240,732 L 240,733 L 234,739 L 233,739 L 231,741 L 230,741 L 227,744 L 226,744 L 223,747 L 222,747 L 206,763 L 206,764 L 205,765 L 205,766 L 203,768 L 203,769 L 202,770 L 202,772 L 201,773 L 201,774 L 200,775 L 200,776 L 199,777 L 199,778 L 198,779 L 198,780 L 197,781 L 197,782 L 196,783 L 196,784 L 195,785 L 195,786 L 193,788 L 193,789 L 191,791 L 191,792 L 188,795 L 188,796 L 186,798 L 186,799 L 184,801 L 184,802 L 182,804 L 182,805 L 181,806 L 181,807 L 180,808 L 180,815 L 181,816 L 181,817 L 183,819 L 184,819 L 185,820 L 187,820 L 188,821 L 192,821 L 193,820 L 196,820 L 197,819 L 198,819 L 199,818 L 200,818 L 210,808 L 210,807 L 211,806 L 212,806 L 213,807 L 212,808 L 212,812 L 211,813 L 211,817 L 210,818 L 210,822 L 209,823 L 209,827 L 208,828 L 208,833 L 207,834 L 207,838 L 206,839 L 206,843 L 205,844 L 205,849 L 204,850 L 204,854 L 203,855 L 203,860 L 202,861 L 202,871 L 203,872 L 203,873 L 207,877 L 209,877 L 210,878 L 215,878 L 216,877 L 217,877 L 218,878 L 218,881 L 219,882 L 219,884 L 220,885 L 220,886 L 223,889 L 224,889 L 225,890 L 226,890 L 227,891 L 233,891 L 234,890 L 235,890 L 240,885 L 241,885 L 242,886 L 243,886 L 244,887 L 246,887 L 247,888 L 251,888 L 252,887 L 254,887 L 255,886 L 256,886 L 258,884 L 258,883 L 259,882 L 259,881 L 260,880 L 260,876 L 261,875 L 262,875 L 264,877 L 265,877 L 266,878 L 272,878 L 273,877 L 274,877 L 278,873 L 278,872 L 279,871 L 279,869 L 280,868 L 280,864 L 281,863 L 281,859 L 282,858 L 282,854 L 283,853 L 283,849 L 284,848 L 284,844 L 285,843 L 285,839 L 286,838 L 286,834 L 287,833 L 287,828 L 288,827 L 288,822 L 289,821 L 289,816 L 290,815 L 290,810 L 291,809 L 291,804 L 292,803 L 292,799 L 293,798 L 293,792 L 294,791 L 294,784 L 295,783 L 295,762 L 294,761 L 294,757 L 293,756 L 293,753 L 292,752 L 292,751 L 293,750 L 293,746 L 294,745 L 294,742 L 295,741 L 295,738 L 296,737 L 296,735 L 297,734 L 297,732 L 298,731 L 298,729 L 299,728 L 299,726 L 300,725 L 300,723 L 301,722 L 301,720 L 302,719 L 302,718 L 303,717 L 303,715 L 304,714 L 304,712 L 305,711 L 305,710 L 306,709 L 306,707 L 307,706 L 307,705 L 308,704 L 308,702 L 309,701 L 309,699 L 310,698 L 310,697 L 311,696 L 311,695 L 312,694 L 312,692 L 313,691 L 313,690 L 314,689 L 314,687 L 315,686 L 315,685 L 316,684 L 316,683 L 317,682 L 317,680 L 318,679 L 318,678 L 319,677 L 319,676 L 320,675 L 320,673 L 321,672 L 321,671 L 322,670 L 322,669 L 323,668 L 323,666 L 324,665 L 324,664 L 325,663 L 325,662 L 326,661 L 326,659 L 327,658 L 327,657 L 328,656 L 328,655 L 329,654 L 329,652 L 330,651 L 330,650 L 331,649 L 331,648 L 332,647 L 332,646 L 333,645 L 333,643 L 334,642 L 334,641 L 335,640 L 335,639 L 336,638 L 336,636 L 337,635 L 337,634 L 338,633 L 338,632 L 339,631 L 339,629 L 340,628 L 340,627 L 341,626 L 341,625 L 342,624 L 342,622 L 343,621 L 343,619 L 344,618 L 344,616 L 345,615 L 345,614 L 346,613 L 346,611 L 347,610 L 347,608 L 348,607 L 348,605 L 349,604 L 349,602 L 350,601 L 350,598 L 351,597 L 351,595 L 352,594 L 352,591 L 353,590 L 353,587 L 354,586 L 354,583 L 355,582 L 355,579 L 356,578 L 356,574 L 357,573 L 357,569 L 358,568 L 358,558 L 359,557 L 359,542 L 360,541 L 360,537 L 361,536 L 361,533 L 362,532 L 362,529 L 363,528 L 363,525 L 364,524 L 364,521 L 365,520 L 365,517 L 366,516 L 366,514 L 367,513 L 367,511 L 368,510 L 368,507 L 369,506 L 369,504 L 370,503 L 370,500 L 371,499 L 371,497 L 372,496 L 372,493 L 373,492 L 373,489 L 374,488 L 374,485 L 375,484 L 375,480 L 376,479 L 376,475 L 377,474 L 377,471 L 378,470 L 378,466 L 379,465 L 379,461 L 380,460 L 381,461 L 381,466 L 382,467 L 382,472 L 383,473 L 383,478 L 384,479 L 384,483 L 385,484 L 385,488 L 386,489 L 386,492 L 387,493 L 387,497 L 388,498 L 388,501 L 389,502 L 389,506 L 390,507 L 390,510 L 391,511 L 391,515 L 392,516 L 392,520 L 393,521 L 393,525 L 394,526 L 394,530 L 395,531 L 395,535 L 396,536 L 396,541 L 397,542 L 397,553 L 396,554 L 396,569 L 395,570 L 395,580 L 394,581 L 394,590 L 393,591 L 393,598 L 392,599 L 392,606 L 391,607 L 391,613 L 390,614 L 390,619 L 389,620 L 389,626 L 388,627 L 388,632 L 387,633 L 387,639 L 386,640 L 386,644 L 385,645 L 385,650 L 384,651 L 384,656 L 383,657 L 383,661 L 382,662 L 382,666 L 381,667 L 381,672 L 380,673 L 380,677 L 379,678 L 379,682 L 378,683 L 378,688 L 377,689 L 377,693 L 376,694 L 376,699 L 375,700 L 375,705 L 374,706 L 374,711 L 373,712 L 373,718 L 372,719 L 372,725 L 371,726 L 371,732 L 370,733 L 370,740 L 369,741 L 369,749 L 368,750 L 368,758 L 367,759 L 367,769 L 366,770 L 366,782 L 365,783 L 365,799 L 364,800 L 364,861 L 365,862 L 365,876 L 366,877 L 366,889 L 367,890 L 367,900 L 368,901 L 368,909 L 369,910 L 369,917 L 370,918 L 370,925 L 371,926 L 371,932 L 372,933 L 372,939 L 373,940 L 373,946 L 374,947 L 374,953 L 375,954 L 375,959 L 376,960 L 376,965 L 377,966 L 377,971 L 378,972 L 378,977 L 379,978 L 379,982 L 380,983 L 380,987 L 381,988 L 381,992 L 382,993 L 382,998 L 383,999 L 383,1004 L 384,1005 L 384,1011 L 385,1012 L 385,1061 L 384,1062 L 384,1067 L 383,1068 L 383,1072 L 382,1073 L 382,1076 L 381,1077 L 381,1081 L 380,1082 L 380,1085 L 379,1086 L 379,1090 L 378,1091 L 378,1095 L 377,1096 L 377,1100 L 376,1101 L 376,1105 L 375,1106 L 375,1112 L 374,1113 L 374,1120 L 373,1121 L 373,1130 L 372,1131 L 372,1166 L 373,1167 L 373,1177 L 374,1178 L 374,1185 L 375,1186 L 375,1192 L 376,1193 L 376,1199 L 377,1200 L 377,1205 L 378,1206 L 378,1210 L 379,1211 L 379,1216 L 380,1217 L 380,1222 L 381,1223 L 381,1228 L 382,1229 L 382,1233 L 383,1234 L 383,1239 L 384,1240 L 384,1244 L 385,1245 L 385,1249 L 386,1250 L 386,1255 L 387,1256 L 387,1260 L 388,1261 L 388,1265 L 389,1266 L 389,1271 L 390,1272 L 390,1276 L 391,1277 L 391,1281 L 392,1282 L 392,1287 L 393,1288 L 393,1293 L 394,1294 L 394,1299 L 395,1300 L 395,1306 L 396,1307 L 396,1313 L 397,1314 L 397,1320 L 398,1321 L 398,1329 L 399,1330 L 399,1342 L 400,1343 L 400,1353 L 399,1354 L 399,1361 L 398,1362 L 398,1374 L 399,1375 L 399,1380 L 400,1381 L 400,1383 L 399,1384 L 399,1389 L 398,1390 L 398,1392 L 397,1393 L 397,1396 L 396,1397 L 396,1399 L 395,1400 L 395,1401 L 394,1402 L 394,1404 L 393,1405 L 393,1407 L 392,1408 L 392,1409 L 391,1410 L 391,1412 L 390,1413 L 390,1415 L 389,1416 L 389,1417 L 388,1418 L 388,1420 L 387,1421 L 387,1422 L 386,1423 L 386,1425 L 385,1426 L 385,1427 L 384,1428 L 384,1430 L 383,1431 L 383,1432 L 382,1433 L 382,1435 L 381,1436 L 381,1437 L 380,1438 L 380,1439 L 379,1440 L 379,1442 L 378,1443 L 378,1444 L 377,1445 L 377,1447 L 376,1448 L 376,1449 L 375,1450 L 375,1452 L 374,1453 L 374,1456 L 373,1457 L 373,1459 L 372,1460 L 372,1465 L 371,1466 L 371,1475 L 372,1476 L 372,1478 L 373,1479 L 373,1480 L 375,1482 L 375,1483 L 376,1483 L 378,1485 L 379,1485 L 380,1486 L 382,1486 L 383,1487 L 383,1488 L 387,1492 L 388,1492 L 389,1493 L 391,1493 L 392,1494 L 395,1494 L 396,1493 L 398,1493 L 399,1494 L 399,1495 L 401,1497 L 402,1497 L 403,1498 L 404,1498 L 405,1499 L 412,1499 L 413,1498 L 414,1498 L 418,1502 L 420,1502 L 421,1503 L 427,1503 L 428,1502 L 429,1502 L 430,1501 L 431,1501 L 432,1500 L 434,1502 L 435,1502 L 437,1504 L 440,1504 L 441,1505 L 445,1505 L 446,1504 L 448,1504 L 449,1503 L 450,1503 L 451,1502 L 452,1502 L 455,1499 L 455,1498 L 457,1496 L 457,1494 L 458,1493 L 458,1490 L 459,1489 L 459,1481 L 460,1480 L 460,1475 L 461,1474 L 461,1472 L 462,1471 L 462,1466 L 463,1465 L 463,1456 L 462,1455 L 462,1446 L 461,1445 L 461,1438 L 460,1437 L 460,1429 L 459,1428 L 459,1417 L 458,1416 L 458,1400 L 457,1399 L 457,1386 L 458,1385 L 458,1382 L 459,1381 L 459,1378 L 460,1377 L 460,1371 L 461,1370 L 461,1364 L 460,1363 L 460,1357 L 459,1356 L 459,1351 L 458,1350 L 458,1322 L 457,1321 L 458,1320 L 458,1288 L 459,1287 L 459,1274 L 460,1273 L 460,1265 L 461,1264 L 461,1257 L 462,1256 L 462,1250 L 463,1249 L 463,1244 L 464,1243 L 464,1238 L 465,1237 L 465,1232 L 466,1231 L 466,1227 L 467,1226 L 467,1223 L 468,1222 L 468,1218 L 469,1217 L 469,1214 L 470,1213 L 470,1209 L 471,1208 L 471,1205 L 472,1204 L 472,1200 L 473,1199 L 473,1195 L 474,1194 L 474,1189 L 475,1188 L 475,1182 L 476,1181 L 476,1170 L 477,1169 L 477,1152 L 476,1151 L 476,1139 L 475,1138 L 475,1129 L 474,1128 L 474,1120 L 473,1119 L 473,1112 L 472,1111 L 472,1104 L 471,1103 L 471,1092 L 470,1091 L 470,1086 L 471,1085 L 471,1082 L 472,1081 L 472,1078 L 473,1077 L 473,1074 L 474,1073 L 474,1070 L 475,1069 L 475,1066 L 476,1065 L 476,1062 L 477,1061 L 477,1057 L 478,1056 L 478,1050 L 479,1049 L 479,1042 L 480,1041 L 480,1032 L 481,1031 L 481,1020 L 482,1019 L 482,1008 L 483,1007 L 483,996 L 484,995 L 484,987 L 485,986 L 485,979 L 486,978 L 486,972 L 487,971 L 487,965 L 488,964 L 488,958 L 489,957 L 489,952 L 490,951 L 490,946 L 491,945 L 491,939 L 492,938 L 492,933 L 493,932 L 493,927 L 494,926 L 494,920 L 495,919 L 495,913 L 496,912 L 496,906 L 497,905 L 497,899 L 498,898 L 498,890 L 499,889 L 499,881 L 500,880 L 500,872 L 501,871 L 501,861 L 502,860 L 502,848 L 503,847 L 503,834 L 504,833 L 504,816 L 505,815 L 505,800 L 506,799 L 510,799 L 511,800 L 513,800 L 514,799 L 515,800 L 516,799 L 517,799 L 518,800 L 518,815 L 519,816 L 519,833 L 520,834 L 520,848 L 521,849 L 521,862 L 522,863 L 522,873 L 523,874 L 523,882 L 524,883 L 524,890 L 525,891 L 525,898 L 526,899 L 526,906 L 527,907 L 527,912 L 528,913 L 528,919 L 529,920 L 529,926 L 530,927 L 530,932 L 531,933 L 531,938 L 532,939 L 532,944 L 533,945 L 533,951 L 534,952 L 534,957 L 535,958 L 535,964 L 536,965 L 536,971 L 537,972 L 537,978 L 538,979 L 538,986 L 539,987 L 539,995 L 540,996 L 540,1005 L 541,1006 L 541,1016 L 542,1017 L 542,1029 L 543,1030 L 543,1041 L 544,1042 L 544,1049 L 545,1050 L 545,1055 L 546,1056 L 546,1060 L 547,1061 L 547,1065 L 548,1066 L 548,1068 L 549,1069 L 549,1072 L 550,1073 L 550,1076 L 551,1077 L 551,1080 L 552,1081 L 552,1084 L 553,1085 L 553,1094 L 552,1095 L 552,1103 L 551,1104 L 551,1111 L 550,1112 L 550,1120 L 549,1121 L 549,1130 L 548,1131 L 548,1140 L 547,1141 L 547,1178 L 548,1179 L 548,1186 L 549,1187 L 549,1193 L 550,1194 L 550,1198 L 551,1199 L 551,1204 L 552,1205 L 552,1208 L 553,1209 L 553,1213 L 554,1214 L 554,1217 L 555,1218 L 555,1222 L 556,1223 L 556,1227 L 557,1228 L 557,1232 L 558,1233 L 558,1237 L 559,1238 L 559,1243 L 560,1244 L 560,1249 L 561,1250 L 561,1256 L 562,1257 L 562,1263 L 563,1264 L 563,1273 L 564,1274 L 564,1283 L 565,1284 L 565,1302 L 566,1303 L 566,1341 L 565,1342 L 565,1353 L 564,1354 L 564,1358 L 563,1359 L 563,1377 L 564,1378 L 564,1381 L 565,1382 L 565,1385 L 566,1386 L 566,1403 L 565,1404 L 565,1419 L 564,1420 L 564,1430 L 563,1431 L 563,1440 L 562,1441 L 562,1448 L 561,1449 L 561,1457 L 560,1458 L 560,1464 L 561,1465 L 561,1470 L 562,1471 L 562,1474 L 563,1475 L 563,1479 L 564,1480 L 564,1487 L 565,1488 L 565,1493 L 566,1494 L 566,1495 L 567,1496 L 567,1497 L 569,1499 L 569,1500 L 570,1501 L 571,1501 L 573,1503 L 574,1503 L 575,1504 L 577,1504 L 578,1505 L 583,1505 L 584,1504 L 586,1504 L 587,1503 L 588,1503 L 591,1500 L 592,1501 L 593,1501 L 594,1502 L 595,1502 L 596,1503 L 602,1503 L 603,1502 L 604,1502 L 605,1501 L 606,1501 L 609,1498 L 610,1498 L 611,1499 L 618,1499 L 619,1498 L 620,1498 L 621,1497 L 622,1497 L 626,1493 L 627,1493 L 628,1494 L 631,1494 L 632,1493 L 634,1493 L 635,1492 L 636,1492 L 640,1488 L 640,1487 L 641,1486 L 643,1486 L 644,1485 L 645,1485 L 647,1483 L 648,1483 L 649,1482 L 649,1481 L 650,1480 L 650,1479 L 651,1478 L 651,1476 L 652,1475 L 652,1466 L 651,1465 L 651,1461 L 650,1460 L 650,1457 L 649,1456 L 649,1453 L 648,1452 L 648,1450 L 647,1449 L 647,1448 L 646,1447 L 646,1445 L 645,1444 L 645,1442 L 644,1441 L 644,1440 L 643,1439 L 643,1438 L 642,1437 L 642,1435 L 641,1434 L 641,1433 L 640,1432 L 640,1431 L 639,1430 L 639,1428 L 638,1427 L 638,1426 L 637,1425 L 637,1423 L 636,1422 L 636,1421 L 635,1420 L 635,1418 L 634,1417 L 634,1416 L 633,1415 L 633,1413 L 632,1412 L 632,1410 L 631,1409 L 631,1408 L 630,1407 L 630,1405 L 629,1404 L 629,1402 L 628,1401 L 628,1399 L 627,1398 L 627,1397 L 626,1396 L 626,1394 L 625,1393 L 625,1390 L 624,1389 L 624,1386 L 623,1385 L 623,1379 L 624,1378 L 624,1373 L 625,1372 L 625,1363 L 624,1362 L 624,1357 L 623,1356 L 623,1339 L 624,1338 L 624,1329 L 625,1328 L 625,1320 L 626,1319 L 626,1313 L 627,1312 L 627,1306 L 628,1305 L 628,1300 L 629,1299 L 629,1294 L 630,1293 L 630,1288 L 631,1287 L 631,1283 L 632,1282 L 632,1277 L 633,1276 L 633,1272 L 634,1271 L 634,1267 L 635,1266 L 635,1261 L 636,1260 L 636,1257 L 637,1256 L 637,1251 L 638,1250 L 638,1246 L 639,1245 L 639,1241 L 640,1240 L 640,1236 L 641,1235 L 641,1230 L 642,1229 L 642,1225 L 643,1224 L 643,1219 L 644,1218 L 644,1214 L 645,1213 L 645,1208 L 646,1207 L 646,1202 L 647,1201 L 647,1196 L 648,1195 L 648,1189 L 649,1188 L 649,1182 L 650,1181 L 650,1173 L 651,1172 L 651,1160 L 652,1159 L 652,1139 L 651,1138 L 651,1125 L 650,1124 L 650,1116 L 649,1115 L 649,1110 L 648,1109 L 648,1104 L 647,1103 L 647,1098 L 646,1097 L 646,1093 L 645,1092 L 645,1088 L 644,1087 L 644,1084 L 643,1083 L 643,1080 L 642,1079 L 642,1075 L 641,1074 L 641,1071 L 640,1070 L 640,1066 L 639,1065 L 639,1057 L 638,1056 L 638,1013 L 639,1012 L 639,1005 L 640,1004 L 640,999 L 641,998 L 641,994 L 642,993 L 642,988 L 643,987 L 643,983 L 644,982 L 644,977 L 645,976 L 645,971 L 646,970 L 646,966 L 647,965 L 647,960 L 648,959 L 648,953 L 649,952 L 649,946 L 650,945 L 650,939 L 651,938 L 651,933 L 652,932 L 652,925 L 653,924 L 653,917 L 654,916 L 654,908 L 655,907 L 655,898 L 656,897 L 656,886 L 657,885 L 657,874 L 658,873 L 658,856 L 659,855 L 659,802 L 658,801 L 658,784 L 657,783 L 657,771 L 656,770 L 656,758 L 655,757 L 655,749 L 654,748 L 654,740 L 653,739 L 653,732 L 652,731 L 652,725 L 651,724 L 651,718 L 650,717 L 650,711 L 649,710 L 649,705 L 648,704 L 648,699 L 647,698 L 647,693 L 646,692 L 646,688 L 645,687 L 645,683 L 644,682 L 644,677 L 643,676 L 643,671 L 642,670 L 642,666 L 641,665 L 641,661 L 640,660 L 640,656 L 639,655 L 639,651 L 638,650 L 638,646 L 637,645 L 637,640 L 636,639 L 636,634 L 635,633 L 635,628 L 634,627 L 634,622 L 633,621 L 633,615 L 632,614 L 632,608 L 631,607 L 631,601 L 630,600 L 630,593 L 629,592 L 629,584 L 628,583 L 628,572 L 627,571 L 627,554 L 626,553 L 626,544 L 627,543 L 627,538 L 628,537 L 628,533 L 629,532 L 629,527 L 630,526 L 630,522 L 631,521 L 631,517 L 632,516 L 632,512 L 633,511 L 633,507 L 634,506 L 634,503 L 635,502 L 635,498 L 636,497 L 636,494 L 637,493 L 637,489 L 638,488 L 638,483 L 639,482 L 639,477 L 640,476 L 640,472 L 641,471 L 641,466 L 642,465 L 642,460 L 643,459 L 644,460 L 644,464 L 645,465 L 645,469 L 646,470 L 646,474 L 647,475 L 647,479 L 648,480 L 648,484 L 649,485 L 649,488 L 650,489 L 650,492 L 651,493 L 651,495 L 652,496 L 652,499 L 653,500 L 653,503 L 654,504 L 654,506 L 655,507 L 655,509 L 656,510 L 656,513 L 657,514 L 657,516 L 658,517 L 658,519 L 659,520 L 659,523 L 660,524 L 660,527 L 661,528 L 661,531 L 662,532 L 662,536 L 663,537 L 663,542 L 664,543 L 664,556 L 665,557 L 665,567 L 666,568 L 666,573 L 667,574 L 667,578 L 668,579 L 668,582 L 669,583 L 669,586 L 670,587 L 670,590 L 671,591 L 671,594 L 672,595 L 672,597 L 673,598 L 673,601 L 674,602 L 674,604 L 675,605 L 675,608 L 676,609 L 676,610 L 677,611 L 677,613 L 678,614 L 678,616 L 679,617 L 679,618 L 680,619 L 680,621 L 681,622 L 681,623 L 682,624 L 682,626 L 683,627 L 683,628 L 684,629 L 684,631 L 685,632 L 685,633 L 686,634 L 686,636 L 687,637 L 687,638 L 688,639 L 688,640 L 689,641 L 689,642 L 690,643 L 690,645 L 691,646 L 691,647 L 692,648 L 692,649 L 693,650 L 693,651 L 694,652 L 694,654 L 695,655 L 695,656 L 696,657 L 696,658 L 697,659 L 697,661 L 698,662 L 698,663 L 699,664 L 699,665 L 700,666 L 700,668 L 701,669 L 701,670 L 702,671 L 702,672 L 703,673 L 703,675 L 704,676 L 704,677 L 705,678 L 705,679 L 706,680 L 706,681 L 707,682 L 707,684 L 708,685 L 708,686 L 709,687 L 709,688 L 710,689 L 710,691 L 711,692 L 711,693 L 712,694 L 712,696 L 713,697 L 713,698 L 714,699 L 714,701 L 715,702 L 715,703 L 716,704 L 716,705 L 717,706 L 717,708 L 718,709 L 718,710 L 719,711 L 719,713 L 720,714 L 720,716 L 721,717 L 721,719 L 722,720 L 722,721 L 723,722 L 723,724 L 724,725 L 724,727 L 725,728 L 725,730 L 726,731 L 726,734 L 727,735 L 727,737 L 728,738 L 728,740 L 729,741 L 729,744 L 730,745 L 730,747 L 731,748 L 731,752 L 730,753 L 730,756 L 729,757 L 729,762 L 728,763 L 728,783 L 729,784 L 729,791 L 730,792 L 730,798 L 731,799 L 731,805 L 732,806 L 732,811 L 733,812 L 733,817 L 734,818 L 734,822 L 735,823 L 735,828 L 736,829 L 736,833 L 737,834 L 737,839 L 738,840 L 738,844 L 739,845 L 739,849 L 740,850 L 740,855 L 741,856 L 741,860 L 742,861 L 742,865 L 743,866 L 743,869 L 744,870 L 744,871 L 745,872 L 745,873 L 746,874 L 746,875 L 747,875 L 749,877 L 750,877 L 751,878 L 757,878 L 758,877 L 759,877 L 760,876 L 762,876 L 763,877 L 763,879 L 764,880 L 764,882 L 766,884 L 766,885 L 767,885 L 769,887 L 771,887 L 772,888 L 776,888 L 777,887 L 780,887 L 781,886 L 782,886 L 783,885 L 788,890 L 789,890 L 790,891 L 796,891 L 797,890 L 798,890 L 799,889 L 800,889 L 803,886 L 803,885 L 804,884 L 804,882 L 805,881 L 805,878 L 804,877 L 805,876 L 806,876 L 807,877 L 808,877 L 809,878 L 813,878 L 814,877 L 816,877 L 818,875 L 819,875 L 819,874 L 821,872 L 821,870 L 822,869 L 822,865 L 821,864 L 821,859 L 820,858 L 820,853 L 819,852 L 819,848 L 818,847 L 818,842 L 817,841 L 817,837 L 816,836 L 816,832 L 815,831 L 815,826 L 814,825 L 814,821 L 813,820 L 813,815 L 812,814 L 812,809 L 811,808 L 811,807 L 812,806 L 818,812 L 818,813 L 822,817 L 823,817 L 825,819 L 826,819 L 827,820 L 830,820 L 831,821 L 835,821 L 836,820 L 838,820 L 839,819 L 840,819 L 842,817 L 842,816 L 843,815 L 843,807 L 842,806 L 842,805 L 840,803 L 840,802 L 838,800 L 838,799 L 835,796 L 835,795 L 833,793 L 833,792 L 831,790 L 831,789 L 829,787 L 829,786 L 828,785 L 828,784 L 827,783 L 827,782 L 826,781 L 826,780 L 825,779 L 825,778 L 824,777 L 824,776 L 823,775 L 823,774 L 822,773 L 822,772 L 821,771 L 821,769 L 820,768 L 820,767 L 818,765 L 818,764 L 815,761 L 815,760 L 805,750 L 804,750 L 799,745 L 798,745 L 794,741 L 793,741 L 791,739 L 790,739 L 787,736 L 786,736 L 783,733 L 783,732 L 782,731 L 782,729 L 781,728 L 781,725 L 780,724 L 780,721 L 779,720 L 779,716 L 778,715 L 778,711 L 777,710 L 777,706 L 776,705 L 776,701 L 775,700 L 775,695 L 774,694 L 774,690 L 773,689 L 773,684 L 772,683 L 772,678 L 771,677 L 771,672 L 770,671 L 770,665 L 769,664 L 769,659 L 768,658 L 768,652 L 767,651 L 767,645 L 766,644 L 766,638 L 765,637 L 765,630 L 764,629 L 764,622 L 763,621 L 763,613 L 762,612 L 762,604 L 761,603 L 761,596 L 760,595 L 760,589 L 759,588 L 759,582 L 758,581 L 758,577 L 757,576 L 757,572 L 756,571 L 756,569 L 755,568 L 755,565 L 754,564 L 754,562 L 753,561 L 753,559 L 752,558 L 752,556 L 751,555 L 751,553 L 750,552 L 750,551 L 749,550 L 749,548 L 748,547 L 748,546 L 747,545 L 747,543 L 746,542 L 746,541 L 745,540 L 745,539 L 744,538 L 744,536 L 743,535 L 743,534 L 742,533 L 742,532 L 741,531 L 741,529 L 740,528 L 740,527 L 739,526 L 739,525 L 738,524 L 738,522 L 737,521 L 737,518 L 736,517 L 736,512 L 735,511 L 735,504 L 734,503 L 734,497 L 733,496 L 733,489 L 732,488 L 732,482 L 731,481 L 731,475 L 730,474 L 730,468 L 729,467 L 729,461 L 728,460 L 728,454 L 727,453 L 727,447 L 726,446 L 726,441 L 725,440 L 725,434 L 724,433 L 724,428 L 723,427 L 723,421 L 722,420 L 722,415 L 721,414 L 721,409 L 720,408 L 720,397 L 721,396 L 721,374 L 720,373 L 720,361 L 719,360 L 719,356 L 718,355 L 718,351 L 717,350 L 717,347 L 716,346 L 716,343 L 715,342 L 715,341 L 714,340 L 714,338 L 713,337 L 713,336 L 712,335 L 712,333 L 711,332 L 711,331 L 710,330 L 710,329 L 709,328 L 709,327 L 707,325 L 707,324 L 706,323 L 706,322 L 704,320 L 704,319 L 701,316 L 701,315 L 689,303 L 688,303 L 686,301 L 685,301 L 683,299 L 682,299 L 681,298 L 680,298 L 678,296 L 677,296 L 676,295 L 674,295 L 673,294 L 672,294 L 671,293 L 669,293 L 668,292 L 666,292 L 665,291 L 663,291 L 662,290 L 659,290 L 658,289 L 654,289 L 653,288 L 648,288 L 647,287 L 641,287 L 640,286 L 636,286 L 635,285 L 634,285 L 633,284 L 631,284 L 630,283 L 629,283 L 628,282 L 627,282 L 626,281 L 624,281 L 623,280 L 622,280 L 621,279 L 620,279 L 619,278 L 618,278 L 617,277 L 615,277 L 614,276 L 613,276 L 612,275 L 611,275 L 610,274 L 609,274 L 608,273 L 606,273 L 605,272 L 604,272 L 603,271 L 602,271 L 601,270 L 600,270 L 599,269 L 598,269 L 597,268 L 596,268 L 595,267 L 593,267 L 592,266 L 591,266 L 590,265 L 589,265 L 588,264 L 587,264 L 586,263 L 585,263 L 584,262 L 582,262 L 581,261 L 580,261 L 579,260 L 578,260 L 577,259 L 576,259 L 575,258 L 574,258 L 572,256 L 571,256 L 569,254 L 569,253 L 568,252 L 568,250 L 567,249 L 567,206 L 569,204 L 569,203 L 570,202 L 570,201 L 571,200 L 571,199 L 572,198 L 572,197 L 573,196 L 573,194 L 574,193 L 574,191 L 575,190 L 575,187 L 576,186 L 576,183 L 577,182 L 577,179 L 579,177 L 581,177 L 582,176 L 583,176 L 586,173 L 587,173 L 589,171 L 589,170 L 592,167 L 592,166 L 593,165 L 593,164 L 594,163 L 594,162 L 595,161 L 595,160 L 596,159 L 596,157 L 597,156 L 597,153 L 598,152 L 598,148 L 599,147 L 599,131 L 598,130 L 598,128 L 597,127 L 597,126 L 594,123 L 593,123 L 592,122 L 591,122 L 590,121 L 585,121 L 584,120 L 584,112 L 585,111 L 585,110 L 584,109 L 584,93 L 583,92 L 583,87 L 582,86 L 582,83 L 581,82 L 581,80 L 580,79 L 580,77 L 579,76 L 579,75 L 578,74 L 578,72 L 577,71 L 577,70 L 576,69 L 576,68 L 574,66 L 574,65 L 572,63 L 572,62 L 560,50 L 559,50 L 557,48 L 556,48 L 554,46 L 553,46 L 552,45 L 551,45 L 550,44 L 549,44 L 548,43 L 547,43 L 546,42 L 545,42 L 544,41 L 542,41 L 541,40 L 539,40 L 538,39 L 536,39 L 535,38 L 531,38 L 530,37 L 526,37 L 525,36 L 516,36 L 515,35 Z" fill="#a7b197" stroke="#4f4f2f" stroke-width="1" />
</svg>
